<?xml version="1.0" encoding="UTF-8"?>
<svg id="Layer_1" data-name="Layer 1" xmlns="http://www.w3.org/2000/svg" viewBox="0 0 516.38 170.6">
  <defs>
    <style>
      .cls-1 {
        fill: red;
      }
    </style>
  </defs>
  <path class="cls-1" d="M83.94,75.08c4.31,5.45,6.47,11.69,6.47,18.73,0,6.36-1.56,11.95-4.68,16.77-3.12,4.83-7.63,8.6-13.54,11.32-5.9,2.72-12.88,4.09-20.94,4.09H0V7.15H49.03c8.06,0,15.01,1.31,20.86,3.92,5.84,2.61,10.27,6.24,13.28,10.9,3.01,4.66,4.51,9.93,4.51,15.83,0,6.92-1.85,12.71-5.53,17.37-3.69,4.66-8.6,7.95-14.73,9.88,6.7,1.25,12.2,4.6,16.52,10.04ZM23.84,56.18h21.79c5.67,0,10.04-1.28,13.11-3.83,3.06-2.55,4.6-6.21,4.6-10.98s-1.53-8.45-4.6-11.07c-3.06-2.61-7.44-3.92-13.11-3.92H23.84v29.79Zm37.54,46.31c3.23-2.72,4.85-6.58,4.85-11.58s-1.7-9.11-5.11-12c-3.4-2.89-8-4.34-13.79-4.34H23.84v32.01h24.01c5.79,0,10.3-1.36,13.54-4.09Z"/>
  <path class="cls-1" d="M126.84,121.48c-7.27-4.03-12.97-9.73-17.11-17.11-4.14-7.38-6.21-15.89-6.21-25.54s2.13-18.16,6.38-25.54c4.26-7.38,10.07-13.08,17.45-17.11,7.38-4.03,15.6-6.04,24.69-6.04s17.31,2.02,24.69,6.04c7.38,4.03,13.19,9.73,17.45,17.11,4.26,7.38,6.38,15.89,6.38,25.54s-2.19,18.16-6.55,25.54c-4.37,7.38-10.27,13.08-17.71,17.11-7.44,4.03-15.75,6.04-24.94,6.04s-17.25-2.01-24.52-6.04Zm36.69-17.88c3.8-2.1,6.84-5.25,9.11-9.45,2.27-4.2,3.41-9.3,3.41-15.32,0-8.97-2.36-15.86-7.07-20.69-4.71-4.82-10.47-7.24-17.28-7.24s-12.51,2.41-17.11,7.24c-4.6,4.83-6.9,11.72-6.9,20.69s2.24,15.86,6.73,20.69c4.48,4.83,10.13,7.24,16.94,7.24,4.31,0,8.37-1.05,12.17-3.15Z"/>
  <path d="M235.46,121.48c-7.27-4.03-12.97-9.73-17.11-17.11-4.14-7.38-6.21-15.89-6.21-25.54s2.13-18.16,6.38-25.54c4.26-7.38,10.07-13.08,17.45-17.11,7.38-4.03,15.6-6.04,24.69-6.04s17.31,2.02,24.69,6.04c7.38,4.03,13.2,9.73,17.45,17.11,4.26,7.38,6.38,15.89,6.38,25.54s-2.19,18.16-6.55,25.54c-4.37,7.38-10.27,13.08-17.71,17.11-7.44,4.03-15.75,6.04-24.94,6.04s-17.25-2.01-24.52-6.04Zm36.69-17.88c3.8-2.1,6.84-5.25,9.11-9.45,2.27-4.2,3.4-9.3,3.4-15.32,0-8.97-2.36-15.86-7.06-20.69-4.71-4.82-10.47-7.24-17.28-7.24s-12.51,2.41-17.11,7.24c-4.6,4.83-6.9,11.72-6.9,20.69s2.24,15.86,6.73,20.69c4.48,4.83,10.13,7.24,16.94,7.24,4.31,0,8.37-1.05,12.17-3.15Z"/>
  <path d="M382.56,125.99l-32.01-40.18v40.18h-23.84V0h23.84V71.68l31.67-40.01h30.99l-41.54,47.33,41.88,46.99h-30.99Z"/>
  <path d="M516.38,31.67l-58.4,138.93h-25.37l20.43-46.99-37.8-91.94h26.73l24.35,65.89,24.69-65.89h25.37Z"/>
</svg>